<svg xmlns="http://www.w3.org/2000/svg" xmlns:xlink="http://www.w3.org/1999/xlink" version="1.1" id="Layer_1" x="0px" y="0px" width="81.455px" height="63.811px" viewBox="0 0 81.455 63.811" enable-background="new 0 0 81.455 63.811" xml:space="preserve">
<g>
	<g>
		<path fill="#f4f4f8" d="M45.355,38.905H35.328c-1.106,0-2.006,0.895-2.006,2c0,1.104,0.899,2,2.006,2h0.006h10.018h0.004    c1.107,0,2.006-0.896,2.006-2C47.361,39.8,46.462,38.905,45.355,38.905z M41.335,21.315c-0.273-0.274-0.634-0.41-0.994-0.41    s-0.721,0.135-0.996,0.41l-6.446,6.417c-1.022,1.015-1.582,2.364-1.582,3.799c0,1.436,0.56,2.784,1.582,3.799    c1.019,1.014,2.374,1.574,3.815,1.574c1.355,0,2.635-0.879,3.627-1.778c0.994,0.9,2.273,1.778,3.627,1.778    c1.441,0,2.797-0.561,3.816-1.574c1.02-1.016,1.582-2.363,1.582-3.799c0-1.436-0.563-2.785-1.582-3.799L41.335,21.315z     M78.451,16.706l-4.998-2.878c0.068-2.705-1.721-5.226-4.451-5.954l-7.574-2.024v0.056c0-3.3-2.707-6-6.016-6H25.33    c-3.31,0-6.016,2.7-6.016,6v52c0,3.299,2.706,6,6.016,6h30.082c3.309,0,6.016-2.701,6.016-6v0.203v1.139l0.57-2.123l18.654-32.222    C82.308,22.044,81.316,18.355,78.451,16.706z M57.417,57.905c0,1.1-0.902,2-2.006,2H25.33c-1.103,0-2.005-0.9-2.005-2v-52    c0-1.1,0.903-2,2.005-2h30.082c1.104,0,2.006,0.9,2.006,2V57.905z M61.427,43.791V9.99l6.537,1.747    c1.064,0.286,1.703,1.388,1.418,2.45L61.427,43.791z M77.179,22.902l-11.17,19.294l6.523-24.279l3.912,2.252    C77.4,20.719,77.73,21.95,77.179,22.902z"/>
	</g>
</g>
</svg>