<svg
  xmlns="http://www.w3.org/2000/svg"
  xmlns:xlink="http://www.w3.org/1999/xlink"
  version="1.1"
  id="Layer_1"
  x="0px"
  y="0px"
  width="63.811px"
  height="63.811px"
  viewBox="0 0 63.811 63.811"
  enable-background="new 0 0 63.811 63.811"
  xml:space="preserve"
>
<g>
	<g>
		<path
        fill="#f4f4f8"
        d="M39.3,19.763c1.072-0.268,1.723-1.354,1.455-2.426c-0.268-1.072-1.357-1.724-2.424-1.455l-8,2    c-0.891,0.223-1.516,1.022-1.516,1.94v14.35c-0.627-0.222-1.299-0.35-2-0.35c-3.309,0-6,2.691-6,6s2.691,6,6,6s6-2.691,6-6V29.384    l6.484-1.622c1.072-0.267,1.723-1.353,1.455-2.426c-0.268-1.071-1.357-1.723-2.424-1.455l-5.516,1.379v-3.877L39.3,19.763z     M26.816,41.822c-1.104,0-2-0.898-2-2c0-1.103,0.896-2,2-2s2,0.897,2,2C28.816,40.924,27.919,41.822,26.816,41.822z M25.816,9.822    h10c1.104,0,2-0.895,2-2c0-1.105-0.896-2-2-2c0,0-0.004,0-0.006,0h-9.99h-0.004c-1.105,0-2,0.895-2,2    C23.816,8.927,24.71,9.822,25.816,9.822z M44.816-0.178h-28c-3.301,0-6,2.7-6,6v52c0,3.3,2.699,6,6,6h28c3.299,0,6-2.7,6-6v-52    C50.816,2.522,48.115-0.178,44.816-0.178z M46.816,57.822c0,1.1-0.9,2-2,2h-28c-1.1,0-2-0.9-2-2v-52c0-1.1,0.9-2,2-2h28    c1.1,0,2,0.901,2,2V57.822z M30.816,51.822c-1.658,0-3,1.342-3,3c0,1.657,1.342,3,3,3c1.656,0,3-1.343,3-3    C33.816,53.164,32.472,51.822,30.816,51.822z"
      />
	</g>
</g>
</svg>
