<svg xmlns="http://www.w3.org/2000/svg" xmlns:xlink="http://www.w3.org/1999/xlink" version="1.1" id="Layer_1" x="0px" y="0px" width="63.811px" height="63.811px" viewBox="0 0 63.811 63.811" enable-background="new 0 0 63.811 63.811" xml:space="preserve">
<g>
	<g>
		<path fill="#f4f4f8" d="M31.114,29.948c-1.034,0.389-1.558,1.542-1.171,2.575c3.039,8.105,1.849,13.047-0.025,18.665    c-0.348,1.048,0.218,2.181,1.265,2.53c0.209,0.07,0.424,0.104,0.633,0.104c0.838,0,1.618-0.53,1.897-1.368    c1.978-5.934,3.464-12.03-0.024-21.335C33.3,30.085,32.15,29.563,31.114,29.948z M30.546,55.959    c-1.029-0.401-2.189,0.104-2.592,1.133c-0.59,1.504-1.132,2.439-1.529,3.121c-0.151,0.262-0.28,0.487-0.383,0.686    c-0.511,0.979-0.13,2.188,0.85,2.697c0.295,0.152,0.611,0.225,0.922,0.225c0.723,0,1.42-0.391,1.775-1.076    c0.08-0.151,0.18-0.323,0.297-0.523c0.434-0.75,1.09-1.881,1.791-3.67C32.082,57.522,31.574,56.361,30.546,55.959z M31.816,3.822    c1.104,0,2-0.896,2-2c0-1.104-0.896-2-2-2c-12.38,0-23.416,6.948-28.802,18.131c-0.48,0.997-0.062,2.19,0.935,2.67    c0.279,0.135,0.574,0.198,0.865,0.198c0.744,0,1.459-0.417,1.804-1.131C11.332,9.902,20.986,3.822,31.816,3.822z M3.816,31.821    c0-1.465,0.301-2.747,0.648-4.233c0.104-0.441,0.209-0.888,0.307-1.347c0.232-1.08-0.455-2.144-1.535-2.375    c-1.079-0.233-2.144,0.455-2.375,1.535c-0.094,0.434-0.193,0.856-0.291,1.273c-0.371,1.582-0.754,3.219-0.754,5.146    c0,3.904,0.695,7.718,2.065,11.335c0.303,0.8,1.064,1.293,1.871,1.293c0.236,0,0.475-0.042,0.709-0.131    c1.032-0.391,1.553-1.546,1.161-2.578C4.423,38.576,3.816,35.239,3.816,31.821z M43.773,12.066    c-0.969-0.529-2.184-0.17-2.713,0.797c-0.529,0.97-0.172,2.185,0.799,2.714c10.656,5.811,9.551,19.064,8.02,37.406l-0.056,0.671    c-0.092,1.102,0.726,2.068,1.827,2.16c0.057,0.005,0.112,0.006,0.168,0.006c1.029,0,1.904-0.789,1.991-1.833l0.056-0.672    C55.458,34.213,56.717,19.125,43.773,12.066z M43.981,31.595c-0.79-6.932-5.72-11.772-11.987-11.772h-1.178    c-1.104,0-2,0.895-2,1.999c0,1.105,0.896,2,2,2h1.178c4.861,0,7.562,4.265,8.013,8.226l0.073,0.648    c0.786,6.85,1.764,15.374-2.009,28.575c-0.304,1.063,0.312,2.168,1.374,2.473c0.184,0.053,0.367,0.078,0.55,0.078    c0.87,0,1.671-0.573,1.921-1.451c3.992-13.967,2.965-22.928,2.139-30.129L43.981,31.595z M26.341,26.115    c0.715-0.842,0.611-2.104-0.23-2.818c-0.843-0.715-2.104-0.614-2.82,0.23c-1.896,2.233-2.971,6.459-2.447,9.621    c1.772,10.7,0.952,16.242-3.816,25.777c-0.494,0.989-0.094,2.19,0.895,2.684c0.287,0.145,0.592,0.211,0.893,0.211    c0.734,0,1.44-0.403,1.791-1.105c5.162-10.323,6.1-16.652,4.184-28.22C24.464,30.537,25.219,27.437,26.341,26.115z M13.816,31.821    c0-9.924,8.074-17.999,18-17.999c1.684,0,3.264,0.125,4.693,0.37c0.115,0.021,0.229,0.029,0.342,0.029    c0.955,0,1.801-0.688,1.969-1.661c0.187-1.089-0.545-2.124-1.633-2.31c-1.654-0.284-3.461-0.429-5.371-0.429    c-12.131,0-22,9.869-22,21.999c0,1.405,0.039,2.88,0.078,4.385c0.149,5.656,0.318,12.066-1.793,15.586    c-0.568,0.947-0.262,2.176,0.686,2.744c0.322,0.193,0.678,0.285,1.027,0.285c0.68,0,1.342-0.346,1.717-0.972    c2.711-4.518,2.533-11.244,2.362-17.749C13.854,34.632,13.816,33.191,13.816,31.821z M39.298,0.701    c-1.074-0.253-2.153,0.405-2.41,1.479c-0.258,1.073,0.404,2.154,1.479,2.412c12.629,3.027,21.449,14.224,21.449,27.229v14    c0,1.104,0.896,2.001,2,2.001s2-0.896,2-2.001v-14C63.816,16.958,53.734,4.162,39.298,0.701z"/>
	</g>
</g>
</svg>