<svg xmlns="http://www.w3.org/2000/svg" xmlns:xlink="http://www.w3.org/1999/xlink" version="1.1" id="Layer_1" x="0px" y="0px" width="63.811px" height="63.811px" viewBox="0 0 63.811 63.811" enable-background="new 0 0 63.811 63.811" xml:space="preserve">
<path fill="#f4f4f8" d="M63.227,42.461L21.351,0.584c-0.778-0.779-2.042-0.779-2.82,0L0.584,18.531c-0.779,0.779-0.779,2.041,0,2.82L42.46,63.227  c0.374,0.375,0.881,0.584,1.41,0.584h17.946c1.102,0,1.994-0.893,1.994-1.993V43.87C63.811,43.342,63.601,42.834,63.227,42.461z   M42.874,58l-31.08-31.08l3.162-3.162l31.08,31.08L42.874,58z M48.856,52.018l-31.08-31.08l3.162-3.163l31.08,31.08L48.856,52.018z   M54.838,46.035l-31.08-31.079l3.162-3.163L58,42.873L54.838,46.035z M19.941,4.814l4.16,4.159L8.974,24.101l-4.16-4.16  L19.941,4.814z M46.69,59.822l13.134-13.133v13.133H46.69z"/>
</svg>